<svg width="300" height="300" viewBox="0 0 300 300" fill="none" xmlns="http://www.w3.org/2000/svg">
<rect width="300" height="300" rx="4" fill="#ECECEC"/>
<path d="M50.7031 203.391C50.5625 204.594 50.1172 205.523 49.3672 206.18C48.6224 206.831 47.6302 207.156 46.3906 207.156C45.0469 207.156 43.9688 206.674 43.1562 205.711C42.349 204.747 41.9453 203.458 41.9453 201.844V200.75C41.9453 199.693 42.1328 198.763 42.5078 197.961C42.888 197.159 43.4245 196.544 44.1172 196.117C44.8099 195.685 45.612 195.469 46.5234 195.469C47.7318 195.469 48.7005 195.807 49.4297 196.484C50.1589 197.156 50.5833 198.089 50.7031 199.281H49.1953C49.0651 198.375 48.7812 197.719 48.3438 197.312C47.9115 196.906 47.3047 196.703 46.5234 196.703C45.5651 196.703 44.8125 197.057 44.2656 197.766C43.724 198.474 43.4531 199.482 43.4531 200.789V201.891C43.4531 203.125 43.7109 204.107 44.2266 204.836C44.7422 205.565 45.4635 205.93 46.3906 205.93C47.224 205.93 47.862 205.742 48.3047 205.367C48.7526 204.987 49.0495 204.328 49.1953 203.391H50.7031ZM54.1016 207H52.6562V195H54.1016V207ZM57.9922 207H56.5469V198.547H57.9922V207ZM56.4297 196.305C56.4297 196.07 56.5 195.872 56.6406 195.711C56.7865 195.549 57 195.469 57.2812 195.469C57.5625 195.469 57.776 195.549 57.9219 195.711C58.0677 195.872 58.1406 196.07 58.1406 196.305C58.1406 196.539 58.0677 196.734 57.9219 196.891C57.776 197.047 57.5625 197.125 57.2812 197.125C57 197.125 56.7865 197.047 56.6406 196.891C56.5 196.734 56.4297 196.539 56.4297 196.305ZM59.9609 202.703C59.9609 201.375 60.2656 200.326 60.875 199.555C61.4844 198.779 62.3021 198.391 63.3281 198.391C64.3281 198.391 65.1172 198.727 65.6953 199.398L65.7578 198.547H67.0859V210.25H65.6406V206.219C65.0573 206.844 64.2812 207.156 63.3125 207.156C62.2917 207.156 61.4766 206.76 60.8672 205.969C60.263 205.172 59.9609 204.117 59.9609 202.805V202.703ZM61.4062 202.867C61.4062 203.836 61.6094 204.596 62.0156 205.148C62.4271 205.701 62.9792 205.977 63.6719 205.977C64.5312 205.977 65.1875 205.596 65.6406 204.836V200.695C65.1823 199.951 64.5312 199.578 63.6875 199.578C62.9896 199.578 62.4349 199.857 62.0234 200.414C61.612 200.966 61.4062 201.784 61.4062 202.867ZM74.625 206.164C74.0625 206.826 73.237 207.156 72.1484 207.156C71.2474 207.156 70.5599 206.896 70.0859 206.375C69.6172 205.849 69.3802 205.073 69.375 204.047V198.547H70.8203V204.008C70.8203 205.289 71.3411 205.93 72.3828 205.93C73.487 205.93 74.2214 205.518 74.5859 204.695V198.547H76.0312V207H74.6562L74.625 206.164ZM81.7422 207.156C80.5964 207.156 79.6641 206.781 78.9453 206.031C78.2266 205.276 77.8672 204.268 77.8672 203.008V202.742C77.8672 201.904 78.026 201.156 78.3438 200.5C78.6667 199.839 79.1146 199.323 79.6875 198.953C80.2656 198.578 80.8906 198.391 81.5625 198.391C82.6615 198.391 83.5156 198.753 84.125 199.477C84.7344 200.201 85.0391 201.237 85.0391 202.586V203.188H79.3125C79.3333 204.021 79.5755 204.695 80.0391 205.211C80.5078 205.721 81.1016 205.977 81.8203 205.977C82.3307 205.977 82.763 205.872 83.1172 205.664C83.4714 205.456 83.7812 205.18 84.0469 204.836L84.9297 205.523C84.2214 206.612 83.1589 207.156 81.7422 207.156ZM81.5625 199.578C80.9792 199.578 80.4896 199.792 80.0938 200.219C79.6979 200.641 79.4531 201.234 79.3594 202H83.5938V201.891C83.5521 201.156 83.3542 200.589 83 200.188C82.6458 199.781 82.1667 199.578 81.5625 199.578ZM90.3047 202.695C90.3047 201.867 90.4661 201.122 90.7891 200.461C91.1172 199.799 91.5703 199.289 92.1484 198.93C92.7318 198.57 93.3958 198.391 94.1406 198.391C95.2917 198.391 96.2214 198.789 96.9297 199.586C97.6432 200.383 98 201.443 98 202.766V202.867C98 203.69 97.8411 204.43 97.5234 205.086C97.2109 205.737 96.7604 206.245 96.1719 206.609C95.5885 206.974 94.9167 207.156 94.1562 207.156C93.0104 207.156 92.0807 206.758 91.3672 205.961C90.6589 205.164 90.3047 204.109 90.3047 202.797V202.695ZM91.7578 202.867C91.7578 203.805 91.974 204.557 92.4062 205.125C92.8438 205.693 93.4271 205.977 94.1562 205.977C94.8906 205.977 95.474 205.69 95.9062 205.117C96.3385 204.539 96.5547 203.732 96.5547 202.695C96.5547 201.768 96.3333 201.018 95.8906 200.445C95.4531 199.867 94.8698 199.578 94.1406 199.578C93.4271 199.578 92.8516 199.862 92.4141 200.43C91.9766 200.997 91.7578 201.81 91.7578 202.867ZM105.031 206.164C104.469 206.826 103.643 207.156 102.555 207.156C101.654 207.156 100.966 206.896 100.492 206.375C100.023 205.849 99.7865 205.073 99.7812 204.047V198.547H101.227V204.008C101.227 205.289 101.747 205.93 102.789 205.93C103.893 205.93 104.628 205.518 104.992 204.695V198.547H106.438V207H105.062L105.031 206.164ZM117.828 207C117.745 206.833 117.677 206.536 117.625 206.109C116.953 206.807 116.151 207.156 115.219 207.156C114.385 207.156 113.701 206.922 113.164 206.453C112.633 205.979 112.367 205.38 112.367 204.656C112.367 203.776 112.701 203.094 113.367 202.609C114.039 202.12 114.982 201.875 116.195 201.875H117.602V201.211C117.602 200.706 117.451 200.305 117.148 200.008C116.846 199.706 116.401 199.555 115.812 199.555C115.297 199.555 114.865 199.685 114.516 199.945C114.167 200.206 113.992 200.521 113.992 200.891H112.539C112.539 200.469 112.688 200.062 112.984 199.672C113.286 199.276 113.693 198.964 114.203 198.734C114.719 198.505 115.284 198.391 115.898 198.391C116.872 198.391 117.635 198.635 118.188 199.125C118.74 199.609 119.026 200.279 119.047 201.133V205.023C119.047 205.799 119.146 206.417 119.344 206.875V207H117.828ZM115.43 205.898C115.883 205.898 116.312 205.781 116.719 205.547C117.125 205.312 117.419 205.008 117.602 204.633V202.898H116.469C114.698 202.898 113.812 203.417 113.812 204.453C113.812 204.906 113.964 205.26 114.266 205.516C114.568 205.771 114.956 205.898 115.43 205.898ZM125.398 199.844C125.18 199.807 124.943 199.789 124.688 199.789C123.74 199.789 123.096 200.193 122.758 201V207H121.312V198.547H122.719L122.742 199.523C123.216 198.768 123.888 198.391 124.758 198.391C125.039 198.391 125.253 198.427 125.398 198.5V199.844ZM130.82 199.844C130.602 199.807 130.365 199.789 130.109 199.789C129.161 199.789 128.518 200.193 128.18 201V207H126.734V198.547H128.141L128.164 199.523C128.638 198.768 129.31 198.391 130.18 198.391C130.461 198.391 130.674 198.427 130.82 198.5V199.844ZM135.508 207.156C134.362 207.156 133.43 206.781 132.711 206.031C131.992 205.276 131.633 204.268 131.633 203.008V202.742C131.633 201.904 131.792 201.156 132.109 200.5C132.432 199.839 132.88 199.323 133.453 198.953C134.031 198.578 134.656 198.391 135.328 198.391C136.427 198.391 137.281 198.753 137.891 199.477C138.5 200.201 138.805 201.237 138.805 202.586V203.188H133.078C133.099 204.021 133.341 204.695 133.805 205.211C134.273 205.721 134.867 205.977 135.586 205.977C136.096 205.977 136.529 205.872 136.883 205.664C137.237 205.456 137.547 205.18 137.812 204.836L138.695 205.523C137.987 206.612 136.924 207.156 135.508 207.156ZM135.328 199.578C134.745 199.578 134.255 199.792 133.859 200.219C133.464 200.641 133.219 201.234 133.125 202H137.359V201.891C137.318 201.156 137.12 200.589 136.766 200.188C136.411 199.781 135.932 199.578 135.328 199.578ZM145.406 204.758C145.406 204.367 145.258 204.065 144.961 203.852C144.669 203.633 144.156 203.445 143.422 203.289C142.693 203.133 142.112 202.945 141.68 202.727C141.253 202.508 140.935 202.247 140.727 201.945C140.523 201.643 140.422 201.284 140.422 200.867C140.422 200.174 140.714 199.589 141.297 199.109C141.885 198.63 142.635 198.391 143.547 198.391C144.505 198.391 145.281 198.638 145.875 199.133C146.474 199.628 146.773 200.26 146.773 201.031H145.32C145.32 200.635 145.151 200.294 144.812 200.008C144.479 199.721 144.057 199.578 143.547 199.578C143.021 199.578 142.609 199.693 142.312 199.922C142.016 200.151 141.867 200.451 141.867 200.82C141.867 201.169 142.005 201.432 142.281 201.609C142.557 201.786 143.055 201.956 143.773 202.117C144.497 202.279 145.083 202.471 145.531 202.695C145.979 202.919 146.31 203.19 146.523 203.508C146.742 203.82 146.852 204.203 146.852 204.656C146.852 205.411 146.549 206.018 145.945 206.477C145.341 206.93 144.557 207.156 143.594 207.156C142.917 207.156 142.318 207.036 141.797 206.797C141.276 206.557 140.867 206.224 140.57 205.797C140.279 205.365 140.133 204.898 140.133 204.398H141.578C141.604 204.883 141.797 205.268 142.156 205.555C142.521 205.836 143 205.977 143.594 205.977C144.141 205.977 144.578 205.867 144.906 205.648C145.24 205.424 145.406 205.128 145.406 204.758ZM150.695 196.5V198.547H152.273V199.664H150.695V204.906C150.695 205.245 150.766 205.5 150.906 205.672C151.047 205.839 151.286 205.922 151.625 205.922C151.792 205.922 152.021 205.891 152.312 205.828V207C151.932 207.104 151.562 207.156 151.203 207.156C150.557 207.156 150.07 206.961 149.742 206.57C149.414 206.18 149.25 205.625 149.25 204.906V199.664H147.711V198.547H149.25V196.5H150.695ZM157.477 207.156C156.331 207.156 155.398 206.781 154.68 206.031C153.961 205.276 153.602 204.268 153.602 203.008V202.742C153.602 201.904 153.76 201.156 154.078 200.5C154.401 199.839 154.849 199.323 155.422 198.953C156 198.578 156.625 198.391 157.297 198.391C158.396 198.391 159.25 198.753 159.859 199.477C160.469 200.201 160.773 201.237 160.773 202.586V203.188H155.047C155.068 204.021 155.31 204.695 155.773 205.211C156.242 205.721 156.836 205.977 157.555 205.977C158.065 205.977 158.497 205.872 158.852 205.664C159.206 205.456 159.516 205.18 159.781 204.836L160.664 205.523C159.956 206.612 158.893 207.156 157.477 207.156ZM157.297 199.578C156.714 199.578 156.224 199.792 155.828 200.219C155.432 200.641 155.188 201.234 155.094 202H159.328V201.891C159.286 201.156 159.089 200.589 158.734 200.188C158.38 199.781 157.901 199.578 157.297 199.578ZM171.641 206.164C171.078 206.826 170.253 207.156 169.164 207.156C168.263 207.156 167.576 206.896 167.102 206.375C166.633 205.849 166.396 205.073 166.391 204.047V198.547H167.836V204.008C167.836 205.289 168.357 205.93 169.398 205.93C170.503 205.93 171.237 205.518 171.602 204.695V198.547H173.047V207H171.672L171.641 206.164ZM176.609 198.547L176.648 199.484C177.268 198.755 178.104 198.391 179.156 198.391C180.339 198.391 181.143 198.844 181.57 199.75C181.852 199.344 182.216 199.016 182.664 198.766C183.117 198.516 183.651 198.391 184.266 198.391C186.12 198.391 187.062 199.372 187.094 201.336V207H185.648V201.422C185.648 200.818 185.51 200.367 185.234 200.07C184.958 199.768 184.495 199.617 183.844 199.617C183.307 199.617 182.862 199.779 182.508 200.102C182.154 200.419 181.948 200.849 181.891 201.391V207H180.438V201.461C180.438 200.232 179.836 199.617 178.633 199.617C177.685 199.617 177.036 200.021 176.688 200.828V207H175.242V198.547H176.609ZM194.5 207C194.417 206.833 194.349 206.536 194.297 206.109C193.625 206.807 192.823 207.156 191.891 207.156C191.057 207.156 190.372 206.922 189.836 206.453C189.305 205.979 189.039 205.38 189.039 204.656C189.039 203.776 189.372 203.094 190.039 202.609C190.711 202.12 191.654 201.875 192.867 201.875H194.273V201.211C194.273 200.706 194.122 200.305 193.82 200.008C193.518 199.706 193.073 199.555 192.484 199.555C191.969 199.555 191.536 199.685 191.188 199.945C190.839 200.206 190.664 200.521 190.664 200.891H189.211C189.211 200.469 189.359 200.062 189.656 199.672C189.958 199.276 190.365 198.964 190.875 198.734C191.391 198.505 191.956 198.391 192.57 198.391C193.544 198.391 194.307 198.635 194.859 199.125C195.411 199.609 195.698 200.279 195.719 201.133V205.023C195.719 205.799 195.818 206.417 196.016 206.875V207H194.5ZM192.102 205.898C192.555 205.898 192.984 205.781 193.391 205.547C193.797 205.312 194.091 205.008 194.273 204.633V202.898H193.141C191.37 202.898 190.484 203.417 190.484 204.453C190.484 204.906 190.635 205.26 190.938 205.516C191.24 205.771 191.628 205.898 192.102 205.898ZM203.523 207H202.078V198.547H203.523V207ZM201.961 196.305C201.961 196.07 202.031 195.872 202.172 195.711C202.318 195.549 202.531 195.469 202.812 195.469C203.094 195.469 203.307 195.549 203.453 195.711C203.599 195.872 203.672 196.07 203.672 196.305C203.672 196.539 203.599 196.734 203.453 196.891C203.307 197.047 203.094 197.125 202.812 197.125C202.531 197.125 202.318 197.047 202.172 196.891C202.031 196.734 201.961 196.539 201.961 196.305ZM207.203 198.547L207.242 199.484C207.862 198.755 208.698 198.391 209.75 198.391C210.932 198.391 211.737 198.844 212.164 199.75C212.445 199.344 212.81 199.016 213.258 198.766C213.711 198.516 214.245 198.391 214.859 198.391C216.714 198.391 217.656 199.372 217.688 201.336V207H216.242V201.422C216.242 200.818 216.104 200.367 215.828 200.07C215.552 199.768 215.089 199.617 214.438 199.617C213.901 199.617 213.456 199.779 213.102 200.102C212.747 200.419 212.542 200.849 212.484 201.391V207H211.031V201.461C211.031 200.232 210.43 199.617 209.227 199.617C208.279 199.617 207.63 200.021 207.281 200.828V207H205.836V198.547H207.203ZM225.094 207C225.01 206.833 224.943 206.536 224.891 206.109C224.219 206.807 223.417 207.156 222.484 207.156C221.651 207.156 220.966 206.922 220.43 206.453C219.898 205.979 219.633 205.38 219.633 204.656C219.633 203.776 219.966 203.094 220.633 202.609C221.305 202.12 222.247 201.875 223.461 201.875H224.867V201.211C224.867 200.706 224.716 200.305 224.414 200.008C224.112 199.706 223.667 199.555 223.078 199.555C222.562 199.555 222.13 199.685 221.781 199.945C221.432 200.206 221.258 200.521 221.258 200.891H219.805C219.805 200.469 219.953 200.062 220.25 199.672C220.552 199.276 220.958 198.964 221.469 198.734C221.984 198.505 222.549 198.391 223.164 198.391C224.138 198.391 224.901 198.635 225.453 199.125C226.005 199.609 226.292 200.279 226.312 201.133V205.023C226.312 205.799 226.411 206.417 226.609 206.875V207H225.094ZM222.695 205.898C223.148 205.898 223.578 205.781 223.984 205.547C224.391 205.312 224.685 205.008 224.867 204.633V202.898H223.734C221.964 202.898 221.078 203.417 221.078 204.453C221.078 204.906 221.229 205.26 221.531 205.516C221.833 205.771 222.221 205.898 222.695 205.898ZM228.234 202.703C228.234 201.385 228.539 200.339 229.148 199.562C229.758 198.781 230.565 198.391 231.57 198.391C232.602 198.391 233.406 198.755 233.984 199.484L234.055 198.547H235.375V206.797C235.375 207.891 235.049 208.753 234.398 209.383C233.753 210.013 232.883 210.328 231.789 210.328C231.18 210.328 230.583 210.198 230 209.938C229.417 209.677 228.971 209.32 228.664 208.867L229.414 208C230.034 208.766 230.792 209.148 231.688 209.148C232.391 209.148 232.938 208.951 233.328 208.555C233.724 208.159 233.922 207.602 233.922 206.883V206.156C233.344 206.823 232.555 207.156 231.555 207.156C230.565 207.156 229.763 206.758 229.148 205.961C228.539 205.164 228.234 204.078 228.234 202.703ZM229.688 202.867C229.688 203.82 229.883 204.57 230.273 205.117C230.664 205.659 231.211 205.93 231.914 205.93C232.826 205.93 233.495 205.516 233.922 204.688V200.828C233.479 200.021 232.815 199.617 231.93 199.617C231.227 199.617 230.677 199.891 230.281 200.438C229.885 200.984 229.688 201.794 229.688 202.867ZM241.07 207.156C239.924 207.156 238.992 206.781 238.273 206.031C237.555 205.276 237.195 204.268 237.195 203.008V202.742C237.195 201.904 237.354 201.156 237.672 200.5C237.995 199.839 238.443 199.323 239.016 198.953C239.594 198.578 240.219 198.391 240.891 198.391C241.99 198.391 242.844 198.753 243.453 199.477C244.062 200.201 244.367 201.237 244.367 202.586V203.188H238.641C238.661 204.021 238.904 204.695 239.367 205.211C239.836 205.721 240.43 205.977 241.148 205.977C241.659 205.977 242.091 205.872 242.445 205.664C242.799 205.456 243.109 205.18 243.375 204.836L244.258 205.523C243.549 206.612 242.487 207.156 241.07 207.156ZM240.891 199.578C240.307 199.578 239.818 199.792 239.422 200.219C239.026 200.641 238.781 201.234 238.688 202H242.922V201.891C242.88 201.156 242.682 200.589 242.328 200.188C241.974 199.781 241.495 199.578 240.891 199.578ZM247.406 198.547L247.445 199.484C248.065 198.755 248.901 198.391 249.953 198.391C251.135 198.391 251.94 198.844 252.367 199.75C252.648 199.344 253.013 199.016 253.461 198.766C253.914 198.516 254.448 198.391 255.062 198.391C256.917 198.391 257.859 199.372 257.891 201.336V207H256.445V201.422C256.445 200.818 256.307 200.367 256.031 200.07C255.755 199.768 255.292 199.617 254.641 199.617C254.104 199.617 253.659 199.779 253.305 200.102C252.951 200.419 252.745 200.849 252.688 201.391V207H251.234V201.461C251.234 200.232 250.633 199.617 249.43 199.617C248.482 199.617 247.833 200.021 247.484 200.828V207H246.039V198.547H247.406Z" fill="#777777"/>
<path d="M110 132C110 109.909 127.909 92 150 92V92C172.091 92 190 109.909 190 132V132C190 154.091 172.091 172 150 172V172C127.909 172 110 154.091 110 132V132Z" fill="#D5D5D5"/>
<path d="M153.477 129.492H169.336V136.328H153.477V154.297H146.211V136.328H130.352V129.492H146.211V112.891H153.477V129.492Z" fill="#ECECEC"/>
</svg>
